<?xml version="1.0" encoding="UTF-8" standalone="no"?>
<!DOCTYPE svg PUBLIC "-//W3C//DTD SVG 1.1//EN"
 "http://www.w3.org/Graphics/SVG/1.1/DTD/svg11.dtd">
<!-- Generated by graphviz version 10.0.1 (20240210.2158)
 -->
<!-- Title: Ucu.Poo.Fsm.StateMachine.ProcessEvent Pages: 1 -->
<svg width="705pt" height="39pt"
 viewBox="0.00 0.00 705.00 38.50" xmlns="http://www.w3.org/2000/svg" xmlns:xlink="http://www.w3.org/1999/xlink">
<g id="graph0" class="graph" transform="scale(1 1) rotate(0) translate(4 34.5)">
<title>Ucu.Poo.Fsm.StateMachine.ProcessEvent</title>
<!-- Node1 -->
<g id="Node000001" class="node">
<title>Node1</title>
<g id="a_Node000001"><a xlink:title="Procesa una secuencia de eventos.">
<polygon fill="#999999" stroke="#666666" points="142.75,-30.5 0,-30.5 0,0 142.75,0 142.75,-30.5"/>
<text text-anchor="start" x="8" y="-17" font-family="Helvetica,sans-Serif" font-size="10.00">Ucu.Poo.Fsm.StateMachine.</text>
<text text-anchor="middle" x="71.38" y="-5.75" font-family="Helvetica,sans-Serif" font-size="10.00">ProcessEvent</text>
</a>
</g>
</g>
<!-- Node2 -->
<g id="Node000002" class="node">
<title>Node2</title>
<g id="a_Node000002"><a xlink:href="classUcu_1_1Poo_1_1Fsm_1_1StateMachine.html#a2d500b7cbf2f40ff47170d461ce01179" target="_top" xlink:title="Procesa un evento enviándolo al estado actual StateMachine.CurrentState.">
<polygon fill="white" stroke="#666666" points="321.5,-30.5 178.75,-30.5 178.75,0 321.5,0 321.5,-30.5"/>
<text text-anchor="start" x="186.75" y="-17" font-family="Helvetica,sans-Serif" font-size="10.00">Ucu.Poo.Fsm.StateMachine.</text>
<text text-anchor="middle" x="250.12" y="-5.75" font-family="Helvetica,sans-Serif" font-size="10.00">ProcessEvent</text>
</a>
</g>
</g>
<!-- Node1&#45;&gt;Node2 -->
<g id="edge1_Node000001_Node000002" class="edge">
<title>Node1&#45;&gt;Node2</title>
<g id="a_edge1_Node000001_Node000002"><a xlink:title=" ">
<path fill="none" stroke="#63b8ff" d="M143.25,-15.25C151.15,-15.25 159.24,-15.25 167.26,-15.25"/>
<polygon fill="#63b8ff" stroke="#63b8ff" points="167.01,-18.75 177.01,-15.25 167.01,-11.75 167.01,-18.75"/>
</a>
</g>
</g>
<!-- Node3 -->
<g id="Node000003" class="node">
<title>Node3</title>
<g id="a_Node000003"><a xlink:href="classUcu_1_1Poo_1_1Fsm_1_1State.html#a9b27ad08e7c936d3bcf58e03d7bdfb95" target="_top" xlink:title="Procesa un evento si dispara alguna de las transiciones de este estado. Ver Transition....">
<polygon fill="white" stroke="#666666" points="499.5,-30.5 357.5,-30.5 357.5,0 499.5,0 499.5,-30.5"/>
<text text-anchor="start" x="365.5" y="-17" font-family="Helvetica,sans-Serif" font-size="10.00">Ucu.Poo.Fsm.State.Process</text>
<text text-anchor="middle" x="428.5" y="-5.75" font-family="Helvetica,sans-Serif" font-size="10.00">Event</text>
</a>
</g>
</g>
<!-- Node2&#45;&gt;Node3 -->
<g id="edge2_Node000002_Node000003" class="edge">
<title>Node2&#45;&gt;Node3</title>
<g id="a_edge2_Node000002_Node000003"><a xlink:title=" ">
<path fill="none" stroke="#63b8ff" d="M321.85,-15.25C329.73,-15.25 337.8,-15.25 345.81,-15.25"/>
<polygon fill="#63b8ff" stroke="#63b8ff" points="345.54,-18.75 355.54,-15.25 345.54,-11.75 345.54,-18.75"/>
</a>
</g>
</g>
<!-- Node4 -->
<g id="Node000004" class="node">
<title>Node4</title>
<g id="a_Node000004"><a xlink:href="classUcu_1_1Poo_1_1Fsm_1_1Transition.html#a45843462b0e032fdd4eed34ad88e58ff" target="_top" xlink:title="Procesa un evento determinando si se dispara o no la transición. En caso de que se dispare la transic...">
<polygon fill="white" stroke="#666666" points="697,-30.5 535.5,-30.5 535.5,0 697,0 697,-30.5"/>
<text text-anchor="start" x="543.5" y="-17" font-family="Helvetica,sans-Serif" font-size="10.00">Ucu.Poo.Fsm.Transition.Process</text>
<text text-anchor="middle" x="616.25" y="-5.75" font-family="Helvetica,sans-Serif" font-size="10.00">Event</text>
</a>
</g>
</g>
<!-- Node3&#45;&gt;Node4 -->
<g id="edge3_Node000003_Node000004" class="edge">
<title>Node3&#45;&gt;Node4</title>
<g id="a_edge3_Node000003_Node000004"><a xlink:title=" ">
<path fill="none" stroke="#63b8ff" d="M499.99,-15.25C507.8,-15.25 515.84,-15.25 523.86,-15.25"/>
<polygon fill="#63b8ff" stroke="#63b8ff" points="523.66,-18.75 533.66,-15.25 523.66,-11.75 523.66,-18.75"/>
</a>
</g>
</g>
</g>
</svg>
