<?xml version="1.0" encoding="UTF-8" standalone="no"?>
<!DOCTYPE svg PUBLIC "-//W3C//DTD SVG 1.1//EN"
 "http://www.w3.org/Graphics/SVG/1.1/DTD/svg11.dtd">
<!-- Generated by graphviz version 10.0.1 (20240210.2158)
 -->
<!-- Title: Ucu.Poo.Fsm.StateMachine Pages: 1 -->
<svg width="141pt" height="102pt"
 viewBox="0.00 0.00 141.00 102.00" xmlns="http://www.w3.org/2000/svg" xmlns:xlink="http://www.w3.org/1999/xlink">
<g id="graph0" class="graph" transform="scale(1 1) rotate(0) translate(4 98)">
<title>Ucu.Poo.Fsm.StateMachine</title>
<!-- Node1 -->
<g id="Node000001" class="node">
<title>Node1</title>
<g id="a_Node000001"><a xlink:title="Representa una máquina de estados. Una máquina de estados es un modelo conceptual que describe sistem...">
<polygon fill="#999999" stroke="none" points="133,-94 0,-94 0,0 133,0 133,-94"/>
<text text-anchor="start" x="4.62" y="-80.5" font-family="Helvetica,sans-Serif" font-size="10.00">Ucu.Poo.Fsm.StateMachine</text>
<text text-anchor="start" x="16" y="-65.5" font-family="Helvetica,sans-Serif" font-size="10.00">+</text>
<text text-anchor="start" x="38" y="-65.5" font-family="Helvetica,sans-Serif" font-size="10.00">CurrentState</text>
<text text-anchor="start" x="16" y="-50.5" font-family="Helvetica,sans-Serif" font-size="10.00">+</text>
<text text-anchor="start" x="38" y="-50.5" font-family="Helvetica,sans-Serif" font-size="10.00">States</text>
<text text-anchor="start" x="16" y="-35.5" font-family="Helvetica,sans-Serif" font-size="10.00">+</text>
<text text-anchor="start" x="38" y="-35.5" font-family="Helvetica,sans-Serif" font-size="10.00">AddState()</text>
<text text-anchor="start" x="16" y="-20.5" font-family="Helvetica,sans-Serif" font-size="10.00">+</text>
<text text-anchor="start" x="38" y="-20.5" font-family="Helvetica,sans-Serif" font-size="10.00">ProcessEvent()</text>
<text text-anchor="start" x="16" y="-5.5" font-family="Helvetica,sans-Serif" font-size="10.00">+</text>
<text text-anchor="start" x="38" y="-5.5" font-family="Helvetica,sans-Serif" font-size="10.00">ProcessEvent()</text>
<polygon fill="#666666" stroke="#666666" points="0,-77 0,-77 133,-77 133,-77 0,-77"/>
<polygon fill="#666666" stroke="#666666" points="0,-47 0,-47 36,-47 36,-47 0,-47"/>
<polygon fill="#666666" stroke="#666666" points="36,-47 36,-47 133,-47 133,-47 36,-47"/>
<polygon fill="none" stroke="#666666" points="0,0 0,-94 133,-94 133,0 0,0"/>
</a>
</g>
</g>
</g>
</svg>
