<?xml version="1.0" encoding="UTF-8" standalone="no"?>
<!DOCTYPE svg PUBLIC "-//W3C//DTD SVG 1.1//EN"
 "http://www.w3.org/Graphics/SVG/1.1/DTD/svg11.dtd">
<!-- Generated by graphviz version 10.0.1 (20240210.2158)
 -->
<!-- Title: Ucu.Poo.Fsm.Transition Pages: 1 -->
<svg width="124pt" height="102pt"
 viewBox="0.00 0.00 124.00 102.00" xmlns="http://www.w3.org/2000/svg" xmlns:xlink="http://www.w3.org/1999/xlink">
<g id="graph0" class="graph" transform="scale(1 1) rotate(0) translate(4 98)">
<title>Ucu.Poo.Fsm.Transition</title>
<!-- Node1 -->
<g id="Node000001" class="node">
<title>Node1</title>
<g id="a_Node000001"><a xlink:title="Esta clase representa una transición a un estado en una máquina de estado finito.">
<polygon fill="#999999" stroke="none" points="116,-94 0,-94 0,0 116,0 116,-94"/>
<text text-anchor="start" x="4.75" y="-80.5" font-family="Helvetica,sans-Serif" font-size="10.00">Ucu.Poo.Fsm.Transition</text>
<text text-anchor="start" x="11.5" y="-65.5" font-family="Helvetica,sans-Serif" font-size="10.00">+</text>
<text text-anchor="start" x="29" y="-65.5" font-family="Helvetica,sans-Serif" font-size="10.00">TriggerEvent</text>
<text text-anchor="start" x="11.5" y="-50.5" font-family="Helvetica,sans-Serif" font-size="10.00">+</text>
<text text-anchor="start" x="29" y="-50.5" font-family="Helvetica,sans-Serif" font-size="10.00">NextState</text>
<text text-anchor="start" x="11.5" y="-35.5" font-family="Helvetica,sans-Serif" font-size="10.00">+</text>
<text text-anchor="start" x="29" y="-35.5" font-family="Helvetica,sans-Serif" font-size="10.00">OnTransition</text>
<text text-anchor="start" x="11.5" y="-20.5" font-family="Helvetica,sans-Serif" font-size="10.00">+</text>
<text text-anchor="start" x="29" y="-20.5" font-family="Helvetica,sans-Serif" font-size="10.00">Transition()</text>
<text text-anchor="start" x="11.5" y="-5.5" font-family="Helvetica,sans-Serif" font-size="10.00">+</text>
<text text-anchor="start" x="29" y="-5.5" font-family="Helvetica,sans-Serif" font-size="10.00">ProcessEvent()</text>
<polygon fill="#666666" stroke="#666666" points="0,-77 0,-77 116,-77 116,-77 0,-77"/>
<polygon fill="#666666" stroke="#666666" points="0,-32 0,-32 27,-32 27,-32 0,-32"/>
<polygon fill="#666666" stroke="#666666" points="27,-32 27,-32 116,-32 116,-32 27,-32"/>
<polygon fill="none" stroke="#666666" points="0,0 0,-94 116,-94 116,0 0,0"/>
</a>
</g>
</g>
</g>
</svg>
