<?xml version="1.0" encoding="UTF-8" standalone="no"?>
<!DOCTYPE svg PUBLIC "-//W3C//DTD SVG 1.1//EN"
 "http://www.w3.org/Graphics/SVG/1.1/DTD/svg11.dtd">
<!-- Generated by graphviz version 10.0.1 (20240210.2158)
 -->
<!-- Title: Ucu.Poo.Fsm.Event Pages: 1 -->
<svg width="155pt" height="168pt"
 viewBox="0.00 0.00 155.00 168.25" xmlns="http://www.w3.org/2000/svg" xmlns:xlink="http://www.w3.org/1999/xlink">

<svg id="main" version="1.1" xmlns="http://www.w3.org/2000/svg" xmlns:xlink="http://www.w3.org/1999/xlink" xml:space="preserve" onload="init(evt)">
<style type="text/css"><![CDATA[
.node, .edge {opacity: 0.7;}
.node.selected, .edge.selected {opacity: 1;}
.edge:hover path { stroke: red; }
.edge:hover polygon { stroke: red; fill: red; }
]]></style>
<script type="application/ecmascript" xlink:href="svg.min.js"/>
<svg id="graph" class="graph">
<g id="graph0" class="graph" transform="scale(1 1) rotate(0) translate(4 164.25)">
<title>Ucu.Poo.Fsm.Event</title>
<!-- Node1 -->
<g id="Node000001" class="node">
<title>Node1</title>
<g id="a_Node000001"><a xlink:title="Esta clase representa un evento procesable por la máquina de estado.">
<polygon fill="#999999" stroke="none" points="99,-64 0,-64 0,0 99,0 99,-64"/>
<text text-anchor="start" x="4.88" y="-50.5" font-family="Helvetica,sans-Serif" font-size="10.00">Ucu.Poo.Fsm.Event</text>
<text text-anchor="start" x="16.5" y="-35.5" font-family="Helvetica,sans-Serif" font-size="10.00">+</text>
<text text-anchor="start" x="39" y="-35.5" font-family="Helvetica,sans-Serif" font-size="10.00">Else</text>
<text text-anchor="start" x="16.5" y="-20.5" font-family="Helvetica,sans-Serif" font-size="10.00">+</text>
<text text-anchor="start" x="39" y="-20.5" font-family="Helvetica,sans-Serif" font-size="10.00">Name</text>
<text text-anchor="start" x="16.5" y="-5.5" font-family="Helvetica,sans-Serif" font-size="10.00">+</text>
<text text-anchor="start" x="39" y="-5.5" font-family="Helvetica,sans-Serif" font-size="10.00">Event()</text>
<polygon fill="#666666" stroke="#666666" points="0,-47 0,-47 99,-47 99,-47 0,-47"/>
<polygon fill="#666666" stroke="#666666" points="0,-17 0,-17 37,-17 37,-17 0,-17"/>
<polygon fill="#666666" stroke="#666666" points="37,-17 37,-17 99,-17 99,-17 37,-17"/>
<polygon fill="none" stroke="#666666" points="0,0 0,-64 99,-64 99,0 0,0"/>
</a>
</g>
</g>
<!-- Node2 -->
<g id="Node000002" class="node">
<title>Node2</title>
<g id="a_Node000002"><a xlink:title=" ">
<polygon fill="white" stroke="none" points="80,-160.25 19,-160.25 19,-111.25 80,-111.25 80,-160.25"/>
<text text-anchor="start" x="24" y="-146.75" font-family="Helvetica,sans-Serif" font-size="10.00">const string</text>
<text text-anchor="start" x="48" y="-131.75" font-family="Helvetica,sans-Serif" font-size="10.00"> </text>
<text text-anchor="start" x="48" y="-116.75" font-family="Helvetica,sans-Serif" font-size="10.00"> </text>
<polygon fill="#bfbfbf" stroke="#bfbfbf" points="19,-143.25 19,-143.25 80,-143.25 80,-143.25 19,-143.25"/>
<polygon fill="#bfbfbf" stroke="#bfbfbf" points="19,-128.25 19,-128.25 80,-128.25 80,-128.25 19,-128.25"/>
<polygon fill="none" stroke="#bfbfbf" points="19,-111.25 19,-160.25 80,-160.25 80,-111.25 19,-111.25"/>
</a>
</g>
</g>
<!-- Node2&#45;&gt;Node1 -->
<g id="edge1_Node000001_Node000002" class="edge">
<title>Node2&#45;&gt;Node1</title>
<g id="a_edge1_Node000001_Node000002"><a xlink:title=" ">
<path fill="none" stroke="#63b8ff" d="M49.5,-111.41C49.5,-101.18 49.5,-88.82 49.5,-76.97"/>
<polygon fill="none" stroke="#63b8ff" points="49.5,-76.85 45.5,-70.85 49.5,-64.85 53.5,-70.85 49.5,-76.85"/>
</a>
</g>
<text text-anchor="middle" x="98.25" y="-83.75" font-family="Helvetica,sans-Serif" font-size="10.00" fill="grey"> +ELSEEVENTNAME</text>
</g>
</g>
</svg>
</svg>

<style type='text/css'>
<![CDATA[
[data-mouse-over-selected='false'] { opacity: 0.7; }
[data-mouse-over-selected='true']  { opacity: 1.0; }
]]>
</style>
<script type="application/ecmascript"><![CDATA[
document.addEventListener('DOMContentLoaded', (event) => {
  highlightEdges();
  highlightAdjacentNodes();
});
]]></script>
</svg>
